<?xml version="1.0" encoding="UTF-8" standalone="no"?>
<svg xmlns="http://www.w3.org/2000/svg" viewBox="-100 0 800 500">
  <polygon
     fill="black"
     points="366.305414143,198.203185885 676.036689773,334.894413323 233.694585857,430.606641182 -76.0366897728,293.915413744"
     stroke="black"
     style="stroke-width:0.5;fill-opacity:0.05" />
  <line
     stroke="black"
     x1="300.0"
     x2="558.109396358"
     y1="400.0"
     y2="513.909356198" />
  <line
     stroke="black"
     x1="300.0"
     x2="-68.61841993"
     y1="400.0"
     y2="479.760189882" />
  <line
     stroke="black"
     x1="300.0"
     x2="300.0"
     y1="400.0"
     y2="-27.9754323328" />
  <line
     stroke="black"
     style="stroke-width:0.5;stroke-miterlimit:4;stroke-dasharray:6,6;stroke-dashoffset:0"
     x1="300.0"
     x2="344.203609429"
     y1="400.0"
     y2="48.6279048748" />
  <line
     stroke="black"
     style="stroke-width:0.5;stroke-miterlimit:4;stroke-dasharray:6,6;stroke-dashoffset:0"
     x1="300.0"
     x2="196.756241457"
     y1="400.0"
     y2="140.448541354" />
  <path
     style="fill:none;stroke:red;stroke-width:1.5"
     d="M 313.81363,290.19623 C 321.19485,292.41439 328.79811,294.90051 334.81116,299.89377 C 337.34589,302.01952 339.67701,305.3737 338.52007,308.80877 C 336.94761,312.98064 332.59621,315.15679 328.72925,316.81641 C 318.27994,320.86622 306.92996,321.83326 295.81301,322.01315 C 281.2584,322.03161 266.55629,320.41533 252.6807,315.87202 C 247.71362,314.05418 242.37176,312.10555 238.9315,307.88162 C 237.67632,306.15337 237.81206,303.63268 239.49644,302.23626 C 242.34936,299.52481 246.36692,298.50593 250.10284,297.59555 C 252.93543,296.91608 255.8204,296.57212 258.70248,296.17941" />
  <path
     style="fill:none;stroke:blue;stroke-width:1.5"
     d="M 344.20361,48.627903 C 364.34681,68.073433 384.92471,87.696224 399.89433,111.55676 C 406.01448,121.90684 411.83684,134.6755 407.13577,146.66642 C 401.17314,159.3929 386.88123,164.56067 374.36313,168.53751 C 341.82447,177.31515 307.96167,179.20503 274.48261,181.46517 C 240.77288,183.16202 206.96918,185.07894 173.2219,183.4349 C 166.35,182.53014 158.32616,182.93376 152.86446,178.05435 C 150.79723,172.72015 156.73483,168.66999 160.14693,165.43028 C 171.53605,156.00741 184.31971,148.38406 196.75624,140.44855" />
  <circle
     cx="344.203609429"
     cy="48.6279048748"
     fill="black"
     r="3.0"
     stroke="none"
     style="stroke-width:0.5" />
  <circle
     cx="196.756241457"
     cy="140.448541354"
     fill="black"
     r="3.0"
     stroke="none"
     style="stroke-width:0.5" />
  <circle
     cx="258.702496583"
     cy="296.179416542"
     fill="black"
     r="3.0"
     stroke="none"
     style="stroke-width:0.5" />
  <circle
     cx="313.813627947"
     cy="290.196220273"
     fill="black"
     r="3.0"
     stroke="none"
     style="stroke-width:0.5" />
</svg>
